# xmcd
#
# Track frame offsets: 
#        150
#        16947
#        32682
#        46555
#        68567
#        83212
#        93225
#        111437
#        124897
#        146397
#        162440
#        175262
#        191820
#        210270
#        227925
#        243685
#
# Disc length: 3392 seconds
#
# Revision: 7
# Processed by: cddbd v1.5.2PL0 Copyright (c) Steve Scherf et al.
# Submitted via: ExactAudioCopy v1.0b3
#
DISCID=d30d3e10
DTITLE=John Campbelljohn - Hook Slide and Sinker
DYEAR=1999
DGENRE=Blues
TTITLE0=The World Is Crazy
TTITLE1=Johnny Rock 'N' Roll
TTITLE2=I Wanna Get Up
TTITLE3=The Court Of Love
TTITLE4=Martha Mae
TTITLE5=Wife and Family
TTITLE6=Phone Booth
TTITLE7=Sunny Sky Slide
TTITLE8=Slow Down
TTITLE9=Heart Like A Stone
TTITLE10=Ready For A Riot
TTITLE11=Non-Conformist Blues
TTITLE12=Baby Bloomer Blues
TTITLE13=Don't You Burn Your Bridges
TTITLE14=Don't Let The Drinkin' Do The Thinkin'
TTITLE15=Pretty Paula Doy
EXTD=
EXTT0=
EXTT1=
EXTT2=
EXTT3=
EXTT4=
EXTT5=
EXTT6=
EXTT7=
EXTT8=
EXTT9=
EXTT10=
EXTT11=
EXTT12=
EXTT13=
EXTT14=
EXTT15=
PLAYORDER=
